<mxfile host="Electron" agent="Mozilla/5.0 (Macintosh; Intel Mac OS X 10_15_7) AppleWebKit/537.36 (KHTML, like Gecko) draw.io/24.7.17 Chrome/128.0.6613.36 Electron/32.0.1 Safari/537.36" version="24.7.17">
  <diagram name="Page-1" id="VoAUAEXx4V9dWu78JEFE">
    <mxGraphModel dx="1129" dy="725" grid="1" gridSize="10" guides="1" tooltips="1" connect="1" arrows="1" fold="1" page="1" pageScale="1" pageWidth="850" pageHeight="1100" math="0" shadow="0">
      <root>
        <mxCell id="0" />
        <mxCell id="1" parent="0" />
        <mxCell id="6XGjvbNFnAErjycvP9---1" value="" style="edgeStyle=orthogonalEdgeStyle;rounded=0;orthogonalLoop=1;jettySize=auto;html=1;" edge="1" parent="1" source="6XGjvbNFnAErjycvP9---2" target="6XGjvbNFnAErjycvP9---5">
          <mxGeometry relative="1" as="geometry" />
        </mxCell>
        <mxCell id="6XGjvbNFnAErjycvP9---2" value="" style="outlineConnect=0;dashed=0;verticalLabelPosition=bottom;verticalAlign=top;align=center;html=1;shape=mxgraph.aws3.api_gateway;fillColor=#D9A741;gradientColor=none;" vertex="1" parent="1">
          <mxGeometry x="348.5" y="424" width="76.5" height="93" as="geometry" />
        </mxCell>
        <mxCell id="6XGjvbNFnAErjycvP9---3" value="" style="edgeStyle=orthogonalEdgeStyle;rounded=0;orthogonalLoop=1;jettySize=auto;html=1;" edge="1" parent="1" source="6XGjvbNFnAErjycvP9---5" target="6XGjvbNFnAErjycvP9---12">
          <mxGeometry relative="1" as="geometry" />
        </mxCell>
        <mxCell id="6XGjvbNFnAErjycvP9---4" value="" style="edgeStyle=orthogonalEdgeStyle;rounded=0;orthogonalLoop=1;jettySize=auto;html=1;" edge="1" parent="1" source="6XGjvbNFnAErjycvP9---5" target="6XGjvbNFnAErjycvP9---6">
          <mxGeometry relative="1" as="geometry" />
        </mxCell>
        <mxCell id="6XGjvbNFnAErjycvP9---5" value="" style="outlineConnect=0;dashed=0;verticalLabelPosition=bottom;verticalAlign=top;align=center;html=1;shape=mxgraph.aws3.lambda_function;fillColor=#F58534;gradientColor=none;" vertex="1" parent="1">
          <mxGeometry x="187" y="434.5" width="69" height="72" as="geometry" />
        </mxCell>
        <mxCell id="6XGjvbNFnAErjycvP9---6" value="" style="outlineConnect=0;dashed=0;verticalLabelPosition=bottom;verticalAlign=top;align=center;html=1;shape=mxgraph.aws3.dynamo_db;fillColor=#2E73B8;gradientColor=none;" vertex="1" parent="1">
          <mxGeometry x="40" y="430" width="72" height="81" as="geometry" />
        </mxCell>
        <mxCell id="6XGjvbNFnAErjycvP9---7" value="" style="outlineConnect=0;dashed=0;verticalLabelPosition=bottom;verticalAlign=top;align=center;html=1;shape=mxgraph.aws3.iam;fillColor=#759C3E;gradientColor=none;" vertex="1" parent="1">
          <mxGeometry x="200" y="260" width="42" height="81" as="geometry" />
        </mxCell>
        <mxCell id="6XGjvbNFnAErjycvP9---9" value="DynamoDB" style="text;html=1;align=center;verticalAlign=middle;resizable=0;points=[];autosize=1;strokeColor=none;fillColor=none;" vertex="1" parent="1">
          <mxGeometry x="32" y="520" width="80" height="30" as="geometry" />
        </mxCell>
        <mxCell id="6XGjvbNFnAErjycvP9---10" value="Lamdba" style="text;html=1;align=center;verticalAlign=middle;resizable=0;points=[];autosize=1;strokeColor=none;fillColor=none;" vertex="1" parent="1">
          <mxGeometry x="186" y="520" width="70" height="30" as="geometry" />
        </mxCell>
        <mxCell id="6XGjvbNFnAErjycvP9---11" value="API Gateway" style="text;html=1;align=center;verticalAlign=middle;resizable=0;points=[];autosize=1;strokeColor=none;fillColor=none;" vertex="1" parent="1">
          <mxGeometry x="341.75" y="520" width="90" height="30" as="geometry" />
        </mxCell>
        <mxCell id="6XGjvbNFnAErjycvP9---12" value="IAM Role" style="text;html=1;align=center;verticalAlign=middle;resizable=0;points=[];autosize=1;strokeColor=none;fillColor=none;" vertex="1" parent="1">
          <mxGeometry x="186" y="348" width="70" height="30" as="geometry" />
        </mxCell>
        <mxCell id="6XGjvbNFnAErjycvP9---13" value="DB Query" style="text;html=1;align=center;verticalAlign=middle;resizable=0;points=[];autosize=1;strokeColor=none;fillColor=none;" vertex="1" parent="1">
          <mxGeometry x="110" y="428" width="80" height="30" as="geometry" />
        </mxCell>
        <mxCell id="6XGjvbNFnAErjycvP9---14" value="Trigger Lambda" style="text;html=1;align=center;verticalAlign=middle;resizable=0;points=[];autosize=1;strokeColor=none;fillColor=none;" vertex="1" parent="1">
          <mxGeometry x="242" y="424" width="110" height="30" as="geometry" />
        </mxCell>
        <mxCell id="6XGjvbNFnAErjycvP9---15" value="API GET Request" style="text;html=1;align=center;verticalAlign=middle;resizable=0;points=[];autosize=1;strokeColor=none;fillColor=none;" vertex="1" parent="1">
          <mxGeometry x="440" y="424" width="120" height="30" as="geometry" />
        </mxCell>
        <mxCell id="6XGjvbNFnAErjycvP9---19" value="" style="edgeStyle=orthogonalEdgeStyle;rounded=0;orthogonalLoop=1;jettySize=auto;html=1;" edge="1" parent="1" source="6XGjvbNFnAErjycvP9---16" target="6XGjvbNFnAErjycvP9---17">
          <mxGeometry relative="1" as="geometry" />
        </mxCell>
        <mxCell id="6XGjvbNFnAErjycvP9---16" value="&lt;font color=&quot;#ffffff&quot;&gt;User&lt;/font&gt;" style="sketch=0;outlineConnect=0;fontColor=#232F3E;gradientColor=none;strokeColor=#232F3E;fillColor=#ffffff;dashed=0;verticalLabelPosition=bottom;verticalAlign=top;align=center;html=1;fontSize=12;fontStyle=0;aspect=fixed;shape=mxgraph.aws4.resourceIcon;resIcon=mxgraph.aws4.user;" vertex="1" parent="1">
          <mxGeometry x="770" y="440.5" width="60" height="60" as="geometry" />
        </mxCell>
        <mxCell id="6XGjvbNFnAErjycvP9---21" value="" style="edgeStyle=orthogonalEdgeStyle;rounded=0;orthogonalLoop=1;jettySize=auto;html=1;" edge="1" parent="1" source="6XGjvbNFnAErjycvP9---17" target="6XGjvbNFnAErjycvP9---2">
          <mxGeometry relative="1" as="geometry">
            <mxPoint x="440" y="470" as="targetPoint" />
            <Array as="points" />
          </mxGeometry>
        </mxCell>
        <mxCell id="6XGjvbNFnAErjycvP9---17" value="" style="sketch=0;points=[[0,0,0],[0.25,0,0],[0.5,0,0],[0.75,0,0],[1,0,0],[0,1,0],[0.25,1,0],[0.5,1,0],[0.75,1,0],[1,1,0],[0,0.25,0],[0,0.5,0],[0,0.75,0],[1,0.25,0],[1,0.5,0],[1,0.75,0]];outlineConnect=0;fontColor=#232F3E;fillColor=#7AA116;strokeColor=#ffffff;dashed=0;verticalLabelPosition=bottom;verticalAlign=top;align=center;html=1;fontSize=12;fontStyle=0;aspect=fixed;shape=mxgraph.aws4.resourceIcon;resIcon=mxgraph.aws4.s3;" vertex="1" parent="1">
          <mxGeometry x="570" y="431.5" width="78" height="78" as="geometry" />
        </mxCell>
        <mxCell id="6XGjvbNFnAErjycvP9---18" value="S3 Static Site" style="text;html=1;align=center;verticalAlign=middle;resizable=0;points=[];autosize=1;strokeColor=none;fillColor=none;" vertex="1" parent="1">
          <mxGeometry x="589" y="520" width="100" height="30" as="geometry" />
        </mxCell>
        <mxCell id="6XGjvbNFnAErjycvP9---20" value="Use Website" style="text;html=1;align=center;verticalAlign=middle;resizable=0;points=[];autosize=1;strokeColor=none;fillColor=none;" vertex="1" parent="1">
          <mxGeometry x="670" y="428" width="90" height="30" as="geometry" />
        </mxCell>
      </root>
    </mxGraphModel>
  </diagram>
</mxfile>
